<svg xmlns="http://www.w3.org/2000/svg" version="1.1" viewBox="0 0 256 256">
	<defs>
		<linearGradient id="outer1" gradientUnits="userSpaceOnUse" x1="117" y1="117" x2="128" y2="128">
			<stop offset="0" style="stop-color:#282828;stop-opacity:0.04"/>
			<stop offset="1" style="stop-color:#282828;stop-opacity:0.00"/>
		</linearGradient>
		<linearGradient id="outer2" gradientUnits="userSpaceOnUse" x1="64" y1="64" x2="75" y2="75">
			<stop offset="0" style="stop-color:#282828;stop-opacity:0.00"/>
			<stop offset="1" style="stop-color:#282828;stop-opacity:0.04"/>
		</linearGradient>
		<linearGradient id="inner" gradientUnits="userSpaceOnUse" x1="77" y1="77" x2="115" y2="115">
			<stop offset="0" style="stop-color:#DCDCDC"/>
			<stop offset="1" style="stop-color:#D2D2D2"/>
		</linearGradient>
	</defs>
	<path fill="url(#outer1)" d="M234 0h22L0 256v-22L234 0z"/>
	<path fill="url(#outer2)" d="M0 150v-22L128 0h22L0 150z"/>
	<path fill="#282828" d="M0 154v-4L150 0h4L0 154z M0 230v4L234 0h-4L0 230z"/>
	<path fill="url(#inner)" d="M0 154L154 0h76L0 230V154z"/>
	<path fill="#3C3C3C" d="M42.836 159.193l-2.106 2.106l-10.096-10.096l5.786-5.786l1.754 1.754l-3.68 3.68l2.604 2.604l3.425-3.425 l1.747 1.747l-3.426 3.426L42.836 159.193z M51.15 151.155c-2.227 2.228-5.22 2.221-7.734-0.29c-4.878-4.882 0.6-10.575 4.91-9.149 C51.066 142.6 55.2 147.1 51.1 151.155z M49.486 149.436c1.278-1.277 0.547-2.614-0.739-3.901 c-3.054-3.054-4.783-0.111-4.533 1.088C44.462 147.8 47.3 151.6 49.5 149.436z M53.167 133.256l1.816 2.1 c-1 0.572-2.85 2.657-0.856 4.654l3.93 3.929l-2.106 2.106l-7.72-7.72l1.594-1.596l1.609 0.988l0.104-0.104 C51.069 136 51.6 134.3 53.2 133.256z M59.631 134.002c-0.322-2.637-0.219-1.192-0.441-6.603l2.375-2.375l0.283 6.4 l7.623 1.119l-2.43 2.43l-5.352-0.904l-0.18 1.63l2.402 2.403l-2.105 2.105l-10.744-10.744l2.105-2.106 c5.63 5.6 4.3 4.3 6.4 6.657L59.631 134.002z M80.031 121.998l-2.106 2.106c-4.568-4.569-5.84-6.519-7.341-5.02 c-1.871 1.9 0.6 3.7 4.6 7.72l-2.105 2.106l-7.721-7.72l1.609-1.609l1.27 0.704l0.118-0.118 c-0.661-2.516 2.346-5.258 4.592-4.592l0.187-0.187c-0.617-2.291 1.905-4.723 3.805-4.723c1.736 0 2.6 1.3 7.9 6.5 l-2.113 2.113c-4.579-4.579-5.844-6.518-7.34-5.02C73.506 116.2 75.9 117.9 80 121.998z M86.129 114.1 c-3.406 0.034-8.675-5.271-4.371-9.578c2.234-2.232 4.817-2.102 7 0.048l1.022 1.022l-4.979 5 c2.424 2.2 4.761-0.259 5.843-3.246l1.629 1.63C91.491 111.2 88.9 114.1 86.1 114.119z M83.416 109.14l2.955-2.956 C84.176 104.1 81.3 106.7 83.4 109.14z M102.434 97.745c0.083 2.473-2.079 4.745-4.154 5.3 c-4.132 1.119-10.202-4.83-5.514-9.52C97.004 89.3 102.3 94.2 102.4 97.745z M99.063 99.9 c2.07-2.07-1.54-4.975-2.831-5.248c-1.279-0.27-2.707 1.161-2.441 2.434C94.04 98.2 96.9 102 99.1 99.858z M112.654 89.375l-2.106 2.106c-4.608-4.609-5.823-6.537-7.423-4.938c-2.018 2 0.3 3.7 4.5 7.852l-2.106 2.106l-7.72-7.72 l1.608-1.609l1.271 0.704l0.117-0.117c-0.604-2.643 3.182-7.052 6.815-3.418L112.654 89.375z M115.693 74.997l4.006-4.005 l5.234 5.234c-6.174 12.149-15.386 3.733-15.327-1.55c0.039-3.36 2.992-6.372 6.129-7.62l1.001 2.4 c-4.102 1.371-5.605 5.111-2.472 8.245c2.822 2.8 5.2 2.3 7.229-0.753l-2.105-2.106l-1.913 1.913L115.693 74.997z M117.234 65.363c-0.686-0.686-0.646-1.411 0.117-2.175c1.555-1.554 3.6 0.5 2.1 2.1 C118.652 66 117.9 66.1 117.2 65.363z M129.146 72.883l-2.106 2.106l-7.72-7.72l2.105-2.106L129.146 72.883z M133.586 64.879l1.568 1.568c-0.29 0.76-0.817 1.521-1.582 2.286c-2.989 2.993-4.91-0.076-8.693-3.86l-1.008 1.008l-0.892-0.891 l0.456-1.864l-1.021-2.238l1.346-1.346l1.644 1.644l2.161-2.162l1.582 1.582l-2.162 2.162l3.723 3.7 C131.815 67.6 132.9 66.3 133.6 64.879z M144.801 57.228l-2.133 2.134l-4.357-4.357l-3.998 3.998l4.357 4.357l-2.141 2.1 l-10.096-10.096l2.141-2.141l3.957 3.957l3.998-3.998l-3.957-3.957l2.133-2.134L144.801 57.228z M152.088 49.942l-1.271-0.704 l-0.109 0.11c0.295 1.298-0.313 2.564-1.25 3.501c-3.472 3.47-5.922-0.438-10.601-5.117l2.106-2.106 c4.611 4.6 5.8 6.5 7.4 4.938c2.035-2.037-0.429-3.771-4.509-7.852l2.105-2.106l7.721 7.72L152.088 49.942z M158.683 35.6 c4.671 4.7 0.9 8.486-2.078 8.128l-0.146 0.145l0.497 1.202l-1.608 1.609l-10.745-10.745l2.106-2.106 c2.806 2.8 2.7 2.7 3.9 4.109l0.082-0.083C150.064 34.8 154 30.9 158.7 35.599z M152.126 38.5 c0.182 1.3 2.4 3.4 3.6 3.598c1.262 0.2 3.777-1.394 0.791-4.381C153.615 34.8 152 37.3 152.1 38.503z"/>
</svg>
